<?xml version="1.0" encoding="UTF-8" standalone="no"?>
<!-- Created with Inkscape (http://www.inkscape.org/) -->

<svg
   xmlns:dc="http://purl.org/dc/elements/1.1/"
   xmlns:cc="http://creativecommons.org/ns#"
   xmlns:rdf="http://www.w3.org/1999/02/22-rdf-syntax-ns#"
   xmlns:svg="http://www.w3.org/2000/svg"
   xmlns="http://www.w3.org/2000/svg"
   xmlns:sodipodi="http://sodipodi.sourceforge.net/DTD/sodipodi-0.dtd"
   xmlns:inkscape="http://www.inkscape.org/namespaces/inkscape"
   version="1.1"
   width="100%"
   height="100%"
   viewBox="0 0 47.504917 22.86887"
   id="svg2"
   xml:space="preserve"
   inkscape:version="0.48.4 r9939"
   sodipodi:docname="car2.svg"><sodipodi:namedview
     pagecolor="#ffffff"
     bordercolor="#666666"
     borderopacity="1"
     objecttolerance="10"
     gridtolerance="10"
     guidetolerance="10"
     inkscape:pageopacity="0"
     inkscape:pageshadow="2"
     inkscape:window-width="1870"
     inkscape:window-height="1002"
     id="namedview18"
     showgrid="false"
     fit-margin-top="0"
     fit-margin-left="0"
     fit-margin-right="0"
     fit-margin-bottom="0"
     inkscape:zoom="6.4005667"
     inkscape:cx="23.277966"
     inkscape:cy="11.256025"
     inkscape:window-x="50"
     inkscape:window-y="0"
     inkscape:window-maximized="1"
     inkscape:current-layer="Layer_2" /><metadata
     id="metadata407"><rdf:RDF><cc:Work
         rdf:about=""><dc:format>image/svg+xml</dc:format><dc:type
           rdf:resource="http://purl.org/dc/dcmitype/StillImage" /><dc:title></dc:title></cc:Work></rdf:RDF></metadata><defs
     id="defs405" /><g
     transform="translate(-261.13946,-236.07718)"
     id="Layer_2"><g
       id="XMLID_609_"
       transform="matrix(0.83918349,0.54384839,-0.54384839,0.83918349,180.44484,-112.1913)"><path
         d="m 268.6,263 c 1.5,0.5 2.5,-0.1 3.5,-0.8 1.8,-1.2 1.8,-1.2 1.8,-1.2 l 32,-20.9 c 1.3,-1.3 -0.1,-3.4 -2.1,-5.8 -1.7,-2.1 -2.8,-3.7 -5.5,-2.5 -2.9,1.2 -6.1,3.5 -7,3.2 -3.5,-1.1 -7.7,-2 -10,-1.6 -2,0.3 -17.5,10.5 -18.4,11.9 -0.8,1.3 -0.9,5.9 -0.2,8.5 0.1,0.3 -0.1,2 0,2.2 0.8,2.8 2.9,6 5.9,7 z"
         id="XMLID_620_"
         style="fill:#fab800;fill-rule:evenodd"
         inkscape:connector-curvature="0" /><path
         d="m 281.2,242 9.5,-6.2 c -3.1,-0.8 -6.9,-1.8 -9,-1.4 -0.5,0.1 -2,1 -4.1,2.2 l 3.6,5.4 z"
         id="XMLID_619_"
         style="fill:#525556;fill-rule:evenodd"
         inkscape:connector-curvature="0" /><path
         d="m 272.7,247.6 7.6,-5 -3.5,-5.5 c -2.4,1.5 -5.2,3.3 -7.7,5 l 3.6,5.5 z"
         id="XMLID_618_"
         style="fill:#525556;fill-rule:evenodd"
         inkscape:connector-curvature="0" /><path
         d="m 268.3,242.7 c -2.5,1.7 -4.4,3.1 -4.7,3.5 -0.8,1.2 -0.4,5.3 0.1,7.2 l 8.1,-5.3 -3.5,-5.4 z"
         id="XMLID_617_"
         style="fill:#525556;fill-rule:evenodd"
         inkscape:connector-curvature="0" /><path
         d="m 266.7,262.4 c 1.1,1.1 2.2,2 3,1.4 12.2,-8 24.4,-15.9 36.6,-23.9 0,0 0.8,-1.2 -0.2,-3.3 l -38.3,25 -1.1,0.8 z"
         id="XMLID_616_"
         style="fill:#b8babc;fill-rule:evenodd"
         inkscape:connector-curvature="0" /><path
         d="m 282.2,255.8 c -1.9,-2.9 -5.7,-3.9 -8.3,-2.1 -2.7,1.8 -3.3,5.6 -1.4,8.5 l 9.7,-6.4 z"
         id="XMLID_615_"
         style="fill:#1a1a1b;fill-rule:evenodd"
         inkscape:connector-curvature="0" /><ellipse
         cx="276.60001"
         cy="258"
         rx="4.5"
         ry="4.1999998"
         transform="matrix(0.8374,-0.5465,0.5465,0.8374,-96.0473,193.1289)"
         id="XMLID_614_"
         style="fill:#525556;fill-rule:evenodd"
         d="m 281.10001,258 c 0,2.3196 -2.01472,4.2 -4.5,4.2 -2.48529,0 -4.5,-1.8804 -4.5,-4.2 0,-2.3196 2.01471,-4.2 4.5,-4.2 2.48528,0 4.5,1.8804 4.5,4.2 z"
         sodipodi:cx="276.60001"
         sodipodi:cy="258"
         sodipodi:rx="4.5"
         sodipodi:ry="4.1999998" /><ellipse
         cx="276.60001"
         cy="258"
         rx="2.8"
         ry="2.5999999"
         transform="matrix(0.8374,-0.5465,0.5465,0.8374,-96.0485,193.1358)"
         id="XMLID_613_"
         style="fill:#e4e8ea;fill-rule:evenodd"
         d="m 279.40001,258 c 0,1.43594 -1.25361,2.6 -2.8,2.6 -1.5464,0 -2.8,-1.16406 -2.8,-2.6 0,-1.43594 1.2536,-2.6 2.8,-2.6 1.54639,0 2.8,1.16406 2.8,2.6 z"
         sodipodi:cx="276.60001"
         sodipodi:cy="258"
         sodipodi:rx="2.8"
         sodipodi:ry="2.5999999" /><path
         d="m 302.8,242.3 c -1.9,-2.9 -5.7,-3.9 -8.3,-2.1 -2.7,1.8 -3.3,5.6 -1.4,8.5 l 9.7,-6.4 z"
         id="XMLID_612_"
         style="fill:#1a1a1b;fill-rule:evenodd"
         inkscape:connector-curvature="0" /><ellipse
         cx="297.29999"
         cy="244.5"
         rx="4.5"
         ry="4.1999998"
         transform="matrix(0.8374,-0.5465,0.5465,0.8374,-85.3258,202.2289)"
         id="XMLID_611_"
         style="fill:#525556;fill-rule:evenodd"
         d="m 301.79999,244.5 c 0,2.3196 -2.01472,4.2 -4.5,4.2 -2.48528,0 -4.5,-1.8804 -4.5,-4.2 0,-2.3196 2.01472,-4.2 4.5,-4.2 2.48528,0 4.5,1.8804 4.5,4.2 z"
         sodipodi:cx="297.29999"
         sodipodi:cy="244.5"
         sodipodi:rx="4.5"
         sodipodi:ry="4.1999998" /><ellipse
         cx="297.29999"
         cy="244.5"
         rx="2.8"
         ry="2.5999999"
         transform="matrix(0.8374,-0.5465,0.5465,0.8374,-85.3252,202.2239)"
         id="XMLID_610_"
         style="fill:#e4e8ea;fill-rule:evenodd"
         d="m 300.09999,244.5 c 0,1.43594 -1.2536,2.6 -2.8,2.6 -1.5464,0 -2.8,-1.16406 -2.8,-2.6 0,-1.43594 1.2536,-2.6 2.8,-2.6 1.5464,0 2.8,1.16406 2.8,2.6 z"
         sodipodi:cx="297.29999"
         sodipodi:cy="244.5"
         sodipodi:rx="2.8"
         sodipodi:ry="2.5999999" /></g></g></svg>