<?xml version="1.0" encoding="UTF-8" standalone="no"?>
<!-- Created with Inkscape (http://www.inkscape.org/) -->

<svg
   xmlns:dc="http://purl.org/dc/elements/1.1/"
   xmlns:cc="http://creativecommons.org/ns#"
   xmlns:rdf="http://www.w3.org/1999/02/22-rdf-syntax-ns#"
   xmlns:svg="http://www.w3.org/2000/svg"
   xmlns="http://www.w3.org/2000/svg"
   xmlns:sodipodi="http://sodipodi.sourceforge.net/DTD/sodipodi-0.dtd"
   xmlns:inkscape="http://www.inkscape.org/namespaces/inkscape"
   version="1.1"
   width="100%"
   height="100%"
   viewBox="0 0 64.4 72.3"
   id="svg3384"
   xml:space="preserve"
   inkscape:version="0.48.4 r9939"
   sodipodi:docname="ship1.svg"><sodipodi:namedview
     pagecolor="#ffffff"
     bordercolor="#666666"
     borderopacity="1"
     objecttolerance="10"
     gridtolerance="10"
     guidetolerance="10"
     inkscape:pageopacity="0"
     inkscape:pageshadow="2"
     inkscape:window-width="1870"
     inkscape:window-height="1002"
     id="namedview6260"
     showgrid="false"
     inkscape:zoom="0.81604426"
     inkscape:cx="443.21243"
     inkscape:cy="-147.86196"
     inkscape:window-x="50"
     inkscape:window-y="0"
     inkscape:window-maximized="1"
     inkscape:current-layer="svg3384" /><metadata
     id="metadata3789"><rdf:RDF><cc:Work
         rdf:about=""><dc:format>image/svg+xml</dc:format><dc:type
           rdf:resource="http://purl.org/dc/dcmitype/StillImage" /><dc:title /></cc:Work></rdf:RDF></metadata><defs
     id="defs3787" /><g
     transform="translate(-441.9,-202.8)"
     id="Layer_3"><g
       id="XMLID_390_"><g
         id="g3723"><polygon
           points="451.6,275.1 445.7,270 444,268.6 441.9,266.8 506.3,266.8 504.2,268.6 502.5,270 496.5,275.1 "
           id="polygon3725"
           style="fill:#ffffff" /><polygon
           points="446.2,270.4 502,270.4 496.5,275.1 451.6,275.1 446.2,270.4 "
           id="polygon3727"
           style="fill:#ffffff" /><path
           d="m 470.4,265.8 h -18.8 c 1.7,-16.4 8.7,-31.7 18.8,-46.2 v 46.2 z"
           id="path3729"
           style="fill:#ffffff" /><path
           d="m 498.3,265.8 h -25.7 v -63 c 2.8,3.9 5.3,7.9 7.7,12 2.2,3.7 4.3,7.5 6.1,11.3 2.9,5.8 5.3,11.8 7.2,17.8 1.2,3.7 2.2,7.5 3,11.3 0.8,3.5 1.3,7.1 1.7,10.6 z"
           id="path3731"
           style="fill:#ffffff" /></g><g
         id="g3733"><polygon
           points="451.6,275.1 445.7,270 444,268.6 441.9,266.8 506.3,266.8 504.2,268.6 502.5,270 496.5,275.1 "
           id="polygon3735"
           style="fill:#58595b;fill-rule:evenodd" /><polygon
           points="446.2,270.4 502,270.4 496.5,275.1 451.6,275.1 446.2,270.4 "
           id="polygon3737"
           style="fill:#a7a9ac;fill-rule:evenodd" /><path
           d="m 470.4,265.8 h -18.8 c 1.7,-16.4 8.7,-31.7 18.8,-46.2 v 46.2 z"
           id="path3739"
           style="fill:#fab800;fill-rule:evenodd" /><path
           d="m 498.3,265.8 h -25.7 v -63 c 2.8,3.9 5.3,7.9 7.7,12 2.2,3.7 4.3,7.5 6.1,11.3 2.9,5.8 5.3,11.8 7.2,17.8 1.2,3.7 2.2,7.5 3,11.3 0.8,3.5 1.3,7.1 1.7,10.6 z"
           id="path3741"
           style="fill:#fab800;fill-rule:evenodd" /></g></g></g></svg>